Coordinates
version=1
nRows=6
nColumns=36
inDegrees=yes

Units are S.I. units (second, meters, Newtons, ...)
If the header above contains a line with 'inDegrees', this indicates whether rotational values are in degrees (yes) or radians (no).

endheader
time	pelvis_tilt	pelvis_list	pelvis_rotation	pelvis_tx	pelvis_ty	pelvis_tz	hip_flexion_r	hip_adduction_r	hip_rotation_r	knee_angle_r	knee_angle_r_beta	ankle_angle_r	subtalar_angle_r	mtp_angle_r	hip_flexion_l	hip_adduction_l	hip_rotation_l	knee_angle_l	knee_angle_l_beta	ankle_angle_l	subtalar_angle_l	mtp_angle_l	lumbar_extension	lumbar_bending	lumbar_rotation	arm_flex_r	arm_add_r	arm_rot_r	elbow_flex_r	pro_sup_r	arm_flex_l	arm_add_l	arm_rot_l	elbow_flex_l	pro_sup_l
      0.00000000	     -4.72398084	     -2.93894256	      0.94191866	      0.07159829	      0.83384172	      0.03031112	     37.64136755	     -1.38129932	      4.51414140	     33.97384780	      0.59295550	      1.44780509	    -18.06285783	     -6.31080608	     25.41739619	      6.07726952	      2.25841842	     35.00051481	      0.61087422	      7.39079964	    -20.27556967	     -6.31080608	     -0.86889087	     -4.68558644	      4.49957967	     27.71172468	    -14.97652807	     13.81120375	     66.08072376	     89.72617331	     48.58204491	    -10.67188939	     33.71407946	     52.99657981	     80.74013881
      0.01666670	     -5.74519915	     -2.97941941	      0.66800800	      0.07384086	      0.82688643	      0.03048196	     39.40326503	     -1.12287615	      5.33737379	     34.39804948	      0.60035922	      4.67136239	    -16.84052493	     -6.38522713	     27.35232614	      6.96238101	      4.75614030	     36.88849338	      0.64382567	     10.55632537	    -20.75975544	     -6.38522713	      0.72417117	     -4.24313590	      4.24113751	     28.61306854	    -12.90731198	     13.01268128	     62.04798943	     89.91020144	     49.48427481	    -11.05184567	     33.48318586	     48.76551399	     80.41191302
      0.03333330	     -6.96798587	     -2.21406051	     -0.37423541	      0.07540659	      0.82348184	      0.03065383	     40.78703927	     -1.12348829	      5.58843520	     33.94701357	      0.59248716	      5.31423559	    -17.08093171	     -6.46469472	     28.72952251	      7.43683197	      4.85579960	     37.14570202	      0.64831480	     10.63782545	    -22.14109667	     -6.46469472	      2.31336203	     -4.71084144	      4.49766220	     30.11335299	    -12.48288588	     14.95343738	     59.86432996	     90.34386798	     49.48047265	    -12.53505370	     33.78692599	     48.50203910	     79.37366845
      0.05000000	     -7.38557829	     -1.72626667	     -0.50953899	      0.07739883	      0.82243546	      0.03080320	     41.44414138	     -1.42111780	      5.88280231	     34.39203602	      0.60025426	      5.28965083	    -17.53842175	     -6.56980027	     29.18746131	      7.98933421	      5.47441602	     37.35220600	      0.65191898	     10.39549872	    -23.43158959	     -6.56980027	      3.02068084	     -4.96924167	      4.63324660	     31.35156959	    -12.13054121	     15.49273802	     57.77445738	     90.21539084	     49.88887963	    -13.65406214	     35.06318709	     49.41128648	     78.15473114
      0.06666670	     -7.47002811	     -1.57017993	     -0.58742089	      0.07637758	      0.82156284	      0.03008650	     41.75620767	     -1.48376016	      6.05042751	     34.80766291	      0.60750832	      5.40065870	    -18.11935463	     -6.61269941	     29.60781960	      8.24886246	      5.74688578	     38.19096245	      0.66655804	     10.34603808	    -24.65831333	     -6.61269941	      3.09842457	     -4.84803744	      5.04925373	     32.00276602	    -12.10206426	     15.25072079	     57.57882876	     89.56636239	     49.78548385	    -14.01931859	     35.27256648	     50.35142831	     77.53439950
      0.08333330	     -7.37254752	     -1.52906038	     -0.20103256	      0.07762108	      0.82163065	      0.02948989	     41.54755812	     -1.67345260	      6.17073990	     35.25354756	      0.61529048	      5.07114883	    -18.67722150	     -6.68990733	     29.44891410	      8.43605372	      5.98087038	     38.29097235	      0.66830354	     10.13371984	    -25.30465004	     -6.68990733	      3.42767376	     -4.49372866	      5.10466878	     32.94501915	    -11.47750496	     14.92891118	     56.13973648	     89.30549474	     49.49776688	    -14.43925610	     36.40944205	     51.61316410	     77.65410371
